<?xml version="1.0" encoding="UTF-8"?>
<svg id="Layer_2" data-name="Layer 2" xmlns="http://www.w3.org/2000/svg" viewBox="0 0 150.11 166.86">
  <defs>
    <style>
      .cls-1 {
        fill: #20ad96;
      }

      .cls-2 {
        fill: #3f3a64;
      }
    </style>
  </defs>
  <g id="Layer_1-2" data-name="Layer 1">
    <g>
      <g>
        <path class="cls-2" d="m26.25,160.6v5.74H9.86v-26.08h16.21v5.74h-10.25v4.32h9.31v5.66h-9.31v4.62h10.43Z"/>
        <path class="cls-2" d="m49.3,140.25v26.08h-5.59v-1.75c-1.23,1.42-3.06,2.27-5.55,2.27-4.88,0-8.9-4.28-8.9-9.84s4.02-9.84,8.9-9.84c2.5,0,4.32.86,5.55,2.27v-9.2h5.59Zm-5.59,16.77c0-2.79-1.86-4.55-4.43-4.55s-4.43,1.75-4.43,4.55,1.86,4.55,4.43,4.55,4.43-1.75,4.43-4.55Z"/>
        <path class="cls-2" d="m71.41,147.71v18.63h-5.59v-1.75c-1.01,1.38-2.87,2.27-5.33,2.27-3.76,0-6.97-2.68-6.97-7.71v-11.44h5.59v10.62c0,2.31,1.45,3.39,3.24,3.39,2.05,0,3.47-1.19,3.47-3.84v-10.17h5.59Z"/>
        <path class="cls-1" d="m93.45,164.47v1.86h-16.65v-1.86l14.08-22.36h-13.71v-1.86h15.91v1.86l-14.08,22.36h14.46Z"/>
        <path class="cls-1" d="m115.53,157.1c0,.3-.04.6-.04.89h-16.88c.45,4.21,3.65,6.97,7.9,6.97,3.05,0,5.37-1.42,6.45-3.39l1.64.97c-1.53,2.53-4.43,4.21-8.12,4.21-5.74,0-9.8-4.1-9.8-9.72s3.95-9.72,9.65-9.72,9.2,4.69,9.2,9.8Zm-16.92-.93h14.98c-.41-4.55-3.61-7.08-7.27-7.08-4.25,0-7.34,2.94-7.71,7.08Z"/>
        <path class="cls-1" d="m136.67,154.75v11.59h-1.9v-11.59c0-3.43-1.97-5.66-5.48-5.66s-6.52,2.38-6.52,7.41v9.84h-1.86v-18.63h1.86v3.54c1.42-2.76,3.8-3.95,6.67-3.95,4.43,0,7.23,2.94,7.23,7.45Z"/>
      </g>
      <g>
        <path class="cls-2" d="m61.7,124.03c-16.77,0-32.49-6.59-44.26-18.56C4.04,91.83-2.09,72.88.64,53.49,3.38,33.97,14.59,17.33,31.38,7.85c1.15-.65,2.33-1.27,3.5-1.83,18.36-8.81,40.67-7.89,58.24,2.42,8.58,5.03,13.07,12.01,12.64,19.66-.26,4.68-2.38,8.3-3.78,10.69-2.75,4.7-6.43,11.03-10.12,17.36-3.68,6.31-7.35,12.63-10.1,17.32-2.74,4.7-8.78,6.28-13.47,3.53-4.7-2.74-6.28-8.78-3.53-13.47,2.74-4.68,6.41-10.98,10.08-17.29,3.69-6.34,7.38-12.68,10.13-17.38.22-.38.56-.96.82-1.45-.46-.48-1.3-1.18-2.64-1.97-11.81-6.93-27.41-7.57-39.75-1.65-.78.38-1.57.79-2.34,1.22-11.41,6.45-19.04,17.84-20.93,31.25-1.87,13.27,2.27,26.19,11.35,35.42,8.03,8.17,18.76,12.67,30.21,12.67,5.44,0,9.85,4.41,9.85,9.85s-4.41,9.85-9.85,9.85Zm24.44-97.4h0,0Z"/>
        <path class="cls-1" d="m140.26,124.03h-38.29c-7.12,0-13.5-3.68-17.06-9.85s-3.56-13.53,0-19.69l43.22-74.87c2.72-4.71,8.74-6.32,13.45-3.6,4.71,2.72,6.32,8.74,3.6,13.45l-43.22,74.87h38.29c5.44,0,9.85,4.41,9.85,9.85s-4.41,9.85-9.85,9.85Z"/>
      </g>
    </g>
  </g>
</svg>