<svg id="Groupe_14873" data-name="Groupe 14873" xmlns="http://www.w3.org/2000/svg" width="173.104" height="122.78" viewBox="0 0 173.104 122.78">
  <path id="Tracé_1159" data-name="Tracé 1159" d="M311.544,164.013h-5.618a.639.639,0,0,1,0-1.278h5.618a.639.639,0,1,1,0,1.278Z" transform="translate(-290.11 -162.736)" fill="#fff"/>
  <path id="Tracé_1160" data-name="Tracé 1160" d="M939.615,166H922.089a2.138,2.138,0,0,0-2.138,2.138v18.974a2.138,2.138,0,0,0,2.138,2.138h17.525a2.138,2.138,0,0,0,2.138-2.138V168.138A2.138,2.138,0,0,0,939.615,166Z" transform="translate(-799.112 -165.439)" fill="#3a98f5"/>
  <path id="Tracé_1161" data-name="Tracé 1161" d="M937.941,265.226h-5.618a.639.639,0,1,1,0-1.278h5.618a.639.639,0,1,1,0,1.278Z" transform="translate(-808.828 -246.55)" fill="#fff"/>
  <path id="Tracé_1162" data-name="Tracé 1162" d="M943.933,280.479h-11.61a.639.639,0,0,1,0-1.278h11.61a.639.639,0,0,1,0,1.278Z" transform="translate(-808.828 -259.181)" fill="#fff" opacity="0.4"/>
  <path id="Tracé_1163" data-name="Tracé 1163" d="M942.3,209.055a1.566,1.566,0,0,1-1.351-.776l-2.813-4.811a.879.879,0,0,0-.759-.435h-2.905a.344.344,0,1,1,0-.688h2.905a1.566,1.566,0,0,1,1.352.776l2.813,4.811a.879.879,0,0,0,1.54-.042l1.739-3.377a1.564,1.564,0,0,1,1.375-.849l5.1-.055h0a.344.344,0,0,1,0,.688l-5.1.055a.877.877,0,0,0-.771.477l-1.739,3.377a1.567,1.567,0,0,1-1.351.849Z" transform="translate(-810.848 -195.537)" fill="#fff"/>
  <path id="Tracé_1164" data-name="Tracé 1164" d="M935.9,198.113h-1.429a.344.344,0,1,1,0-.688H935.9a.873.873,0,0,0,.619-.255l6.605-6.56a1.557,1.557,0,0,1,1.1-.455h1.933a1.565,1.565,0,0,1,1.526,1.213l1.016,4.374a.877.877,0,0,0,.855.68H951.3a.344.344,0,0,1,0,.688h-1.745a1.565,1.565,0,0,1-1.525-1.213l-1.016-4.374a.878.878,0,0,0-.856-.68h-1.933a.873.873,0,0,0-.619.255L937,197.658A1.556,1.556,0,0,1,935.9,198.113Z" transform="translate(-810.848 -185.442)" fill="#fff" opacity="0.4"/>
  <path id="Tracé_1165" data-name="Tracé 1165" d="M1060.02,805.653s-.641,6.462-11.775,6.462H1035.19l17.317-13.464Z" transform="translate(-894.541 -689.336)" fill="#3f3a64"/>
  <path id="Tracé_1166" data-name="Tracé 1166" d="M1011.939,403.75l30.655,6.792a2.28,2.28,0,0,1,.767.318c.848.56,2.362,2.2,2.072,6.669-.389,5.963-7.589,61.107-7.589,61.107l-29.433-25.482Z" transform="translate(-872.365 -362.319)" fill="#3f3a64"/>
  <path id="Tracé_1167" data-name="Tracé 1167" d="M992.876,402.731l30.879,6.842s2.642.962,2.615,6.937-7.59,61.107-7.59,61.107l-29.434-25.482Z" transform="translate(-856.578 -361.475)" fill="#3a98f5"/>
  <path id="Tracé_1168" data-name="Tracé 1168" d="M1012.8,392.828s.543,7.871.782,9.118c.419,2.185,10.018-2.405,9.314-4.351-.365-1.009-2.027-10.627-2.027-10.627Z" transform="translate(-876 -348.423)" fill="#bc775c"/>
  <path id="Tracé_1169" data-name="Tracé 1169" d="M1013.722,433.52l-.822-8.058h4.865Z" transform="translate(-876.083 -380.299)" fill="#93523e"/>
  <path id="Tracé_1169_-_Contour" data-name="Tracé 1169 - Contour" d="M1013.208,433.408l-.861-8.446h5.1Zm-.671-8.275.782,7.67,3.848-7.67Z" transform="translate(-875.624 -379.885)" fill="#93523e"/>
  <path id="Tracé_1170" data-name="Tracé 1170" d="M992.081,332.228c.371-3.963-4.124-3.108-4.892-2.93s-1.972-5.694-1.972-5.694-8.869-1.579-10.769,0c0,0-1.192,7.4-1.384,12.142s1.137,6.863,2.875,7.025a10.943,10.943,0,0,0,6.957-1.108,11.983,11.983,0,0,0,4.549-5.278l.088-.04S991.732,335.971,992.081,332.228Z" transform="translate(-843.079 -295.369)" fill="#bc775c"/>
  <path id="Tracé_1171" data-name="Tracé 1171" d="M978.218,394.839a6.5,6.5,0,0,1,3.482-.288c1.5.293,1.954.487,2.123.834s.2.731-.423.485a8.676,8.676,0,0,0-3.1-.663,10.423,10.423,0,0,0-1.6.292C978.095,395.682,977.528,395.276,978.218,394.839Z" transform="translate(-847.101 -354.615)" fill="#493212"/>
  <path id="Tracé_1172" data-name="Tracé 1172" d="M966.511,291.331s.5-4.434.568-5.662c.092-1.766,1.383-1.2,2.307.041,1.33,1.839,3.867,1.723,6,1.146,1.872-.456,1.9-.349,2.07,1.628s.81,5.648,1.41,4.77a7.131,7.131,0,0,1,2.567-2.927c1.783-.951,3.612.8,3.182,2.159a7.452,7.452,0,0,1-3.68,4.2l1.1,5.09c5.565-7.719,7.66-18.319.113-20.773-2.819-.917-5.747-6.86-11.2-5.508-3.865.958-3.865,4.056-4.139,6.75C961.612,282.466,966.511,291.331,966.511,291.331Z" transform="translate(-835.935 -255.943)" fill="#493212"/>
  <path id="Tracé_1173" data-name="Tracé 1173" d="M1008.859,371.54c.107-.562-.107-1.074-.474-1.143s-.753.329-.858.891.1,1.074.473,1.143S1008.753,372.1,1008.859,371.54Z" transform="translate(-871.611 -334.693)" fill="#080b09"/>
  <path id="Tracé_1174" data-name="Tracé 1174" d="M979.387,365.769c.106-.562-.106-1.074-.474-1.143s-.753.329-.859.891.106,1.074.474,1.144S979.28,366.331,979.387,365.769Z" transform="translate(-847.204 -329.914)" fill="#080b09"/>
  <path id="Tracé_1175" data-name="Tracé 1175" d="M984.962,381.753a.13.13,0,0,1-.081-.028c-.537-.427-.566-.762-.5-.968a.671.671,0,0,1,.383-.379,1.663,1.663,0,0,1,.649-.127.342.342,0,0,0,.309-.143c.131-.236-.088-.736-.175-.893a.13.13,0,1,1,.228-.126,2.492,2.492,0,0,1,.171.4.943.943,0,0,1,0,.745.586.586,0,0,1-.526.277h0c-.415.006-.726.135-.792.33-.06.176.09.424.411.68a.13.13,0,0,1-.081.232Z" transform="translate(-852.447 -341.84)" fill="#93523e"/>
  <path id="Tracé_1176" data-name="Tracé 1176" d="M987.785,399.91c.536.023,1.608.07,2.323.113a.227.227,0,0,1,.119.04.23.23,0,0,1,.1.221.225.225,0,0,1-.047.117c-.619.722-2.058,2.035-2.709-.192a.21.21,0,0,1,.213-.3Z" transform="translate(-855.092 -359.138)" fill="#fff"/>
  <path id="Tracé_1177" data-name="Tracé 1177" d="M1006.661,358.083l-.046.1a.625.625,0,0,1-.8.379l-2.654-1.012a.55.55,0,0,1-.359-.65.593.593,0,0,1,.1-.23.6.6,0,0,1,.421-.249.6.6,0,0,1,.249.025l2.7.91a.576.576,0,0,1,.2.1.563.563,0,0,1,.144.176.572.572,0,0,1,.065.218A.562.562,0,0,1,1006.661,358.083Z" transform="translate(-867.71 -323.124)" fill="#080b09"/>
  <path id="Tracé_1178" data-name="Tracé 1178" d="M970.807,352.019l2.837-.272a.6.6,0,0,1,.645.617.549.549,0,0,1-.5.552l-2.814.382a.626.626,0,0,1-.689-.55l-.023-.111a.571.571,0,0,1,.541-.618Z" transform="translate(-840.776 -319.254)" fill="#080b09"/>
  <path id="Tracé_1179" data-name="Tracé 1179" d="M261.36,805.653s.641,6.462,11.776,6.462H286.19l-17.317-13.464Z" transform="translate(-253.734 -689.336)" fill="#3f3a64"/>
  <path id="Tracé_1180" data-name="Tracé 1180" d="M250.531,403.75l-30.656,6.792a2.286,2.286,0,0,0-.767.318c-.848.56-2.363,2.2-2.072,6.669.388,5.963,7.589,61.107,7.589,61.107l29.434-25.482Z" transform="translate(-217 -362.319)" fill="#3f3a64"/>
  <path id="Tracé_1181" data-name="Tracé 1181" d="M269.766,402.731l-30.88,6.842s-2.641.962-2.614,6.937,7.589,61.107,7.589,61.107L273.3,452.136Z" transform="translate(-232.959 -361.475)" fill="#e9e1d6"/>
  <path id="Tracé_1182" data-name="Tracé 1182" d="M456.835,568.211l3,4.193a5.205,5.205,0,0,0,3.688,2.15l19.613,2.07.3,4.912L459.5,582.988a8.254,8.254,0,0,1-7.049-3.215l-6.414-8.362Z" transform="translate(-406.663 -498.509)" fill="#ffccb3"/>
  <path id="Tracé_1183" data-name="Tracé 1183" d="M466.579,579s-6.166,1.628-7.968,6.713l-3.072-4.541,10.378-3.1Z" transform="translate(-414.534 -506.675)" fill="#ff967c"/>
  <path id="Tracé_1184" data-name="Tracé 1184" d="M430.206,476.2s6,1.749,7.67,3.768c1.3,1.571,3.509,8.1,5.241,11.243.419.76,1.012.829.571,1.575-1.825,3.089-3.389,7.592-6.4,8.567C427.192,499.824,430.206,476.2,430.206,476.2Z" transform="translate(-393.207 -422.311)" fill="#5661ae"/>
  <path id="Tracé_1185" data-name="Tracé 1185" d="M468.739,528.231s4,7.261,4.612,11.163c0,0-1.426,3.618-2.432,4.354-1.57,1.148-2.432.5-2.432.5Z" transform="translate(-425.256 -465.401)" fill="#465393"/>
  <path id="Tracé_1186" data-name="Tracé 1186" d="M299.954,294.337a10.02,10.02,0,1,0-10.02-10.02A10.02,10.02,0,0,0,299.954,294.337Z" transform="translate(-277.397 -255.12)" fill="#080b09"/>
  <path id="Tracé_1187" data-name="Tracé 1187" d="M328,300.951s-12.931-2.283-14.448,13.4a5.379,5.379,0,0,0,3.16,1.545s1.514-15.215,12.045-14.039Z" transform="translate(-296.958 -277.095)" fill="#febb94"/>
  <path id="Tracé_1188" data-name="Tracé 1188" d="M377.878,286.5s-1.487-.772-.366-1.662a6.051,6.051,0,0,0,1.648-2.175,1.6,1.6,0,0,1,.673,2.076c-.574,1.417-.934,1.5-.934,1.5Z" transform="translate(-349.573 -262.049)" fill="#febb94"/>
  <path id="Tracé_1189" data-name="Tracé 1189" d="M361.812,292.647s-.409,1.625-1.533.738a6.055,6.055,0,0,0-2.5-1.1,1.6,1.6,0,0,1,1.866-1.132c1.511.233,1.671.565,1.671.565Z" transform="translate(-333.582 -269.046)" fill="#febb94"/>
  <path id="Tracé_1190" data-name="Tracé 1190" d="M353.6,407.678l1.583,5.89s12.085,13.712,2.055,18.7c-1.763.877-10.189-5.859-11.771-7.353s-.926-10.315-.926-10.315l3.633-12.6Z" transform="translate(-322.506 -360.869)" fill="#ffccb3"/>
  <path id="Tracé_1191" data-name="Tracé 1191" d="M377.176,543.748s5.9,3.711,11.837.267c0,0-.914,5.112-4.511,6.758S377.176,543.748,377.176,543.748Z" transform="translate(-349.641 -478.251)" fill="#1c85e8"/>
  <path id="Tracé_1192" data-name="Tracé 1192" d="M384.416,431.088l-3.174-2.076,4.7,7.9Z" transform="translate(-353.008 -383.238)" fill="#ff967c"/>
  <path id="Tracé_1193" data-name="Tracé 1193" d="M364.577,331.482s1.679,8.834-1.321,13.984c-1.957,3.358-4.645,3.453-9.887-.525-4.807-3.648-5.786-5.829-5.786-5.829l1.175-9.184S362.652,323.515,364.577,331.482Z" transform="translate(-325.135 -299.167)" fill="#ffccb3"/>
  <path id="Tracé_1194" data-name="Tracé 1194" d="M317.282,468.28s5.943,1.468,6.9,2.143,2.188,6.589,3.913,9.327,4.082,7.065,1.054,12.069a18.709,18.709,0,0,0-2.755,9.792l2.291,12.561H303.165c-1.067.1-1.634-2.606-1.6-3.677a90.586,90.586,0,0,0,.214-10.184c-.306-7.589-3.14-29.119-3.14-29.119l8.414-3.124c-.259,11.845,6.623,9.26,12.413,20.035C324.2,479,317.282,468.28,317.282,468.28Z" transform="translate(-284.603 -415.581)" fill="#5661ae"/>
  <path id="Tracé_1195" data-name="Tracé 1195" d="M309.5,521.934a7.413,7.413,0,0,1,.263,5.262c-1.109,2.99-2.329,10.274,3.076,10.733,6.625.563,3.844,1.764.845,2.684s-1.753.846-1.562,4c.136,2.245-5.9,6.8-5.342,5.062C309.759,540.342,299.625,528.81,309.5,521.934Z" transform="translate(-289.925 -460.187)" fill="#465393"/>
  <path id="Tracé_1196" data-name="Tracé 1196" d="M414.472,417.317l3.18.53c-.012.027-.026.059-.044.094a2.292,2.292,0,0,1-.269.421,1.447,1.447,0,0,1-1.181.581,1.764,1.764,0,0,1-1.49-.937,1.9,1.9,0,0,1-.178-.551C414.481,417.4,414.475,417.355,414.472,417.317Z" transform="translate(-380.526 -373.554)" fill="#e56441"/>
  <path id="Tracé_1196_-_Contour" data-name="Tracé 1196 - Contour" d="M413.918,416.718l3.4.566-.044.1c-.014.032-.03.065-.046.1a2.391,2.391,0,0,1-.279.437,1.757,1.757,0,0,1-.486.422,1.439,1.439,0,0,1-.725.191h-.047a2.171,2.171,0,0,1-1.034-.37,1.687,1.687,0,0,1-.523-.613,2,2,0,0,1-.186-.576c-.008-.048-.014-.1-.018-.145Zm3.149.7-2.955-.492,0,.021a1.827,1.827,0,0,0,.17.526,1.69,1.69,0,0,0,1.419.89h.031a1.352,1.352,0,0,0,1.077-.55A2.217,2.217,0,0,0,417.067,417.417Z" transform="translate(-380.067 -373.058)" fill="#e56441"/>
  <path id="Tracé_1197" data-name="Tracé 1197" d="M439.342,385.3c.356-.017.624-.457.6-.982s-.335-.936-.692-.919-.624.457-.6.982S438.986,385.321,439.342,385.3Z" transform="translate(-400.547 -345.469)" fill="#080b09"/>
  <path id="Tracé_1198" data-name="Tracé 1198" d="M408.75,387.24c.356-.017.624-.457.6-.982s-.335-.936-.692-.919-.624.457-.6.982S408.394,387.258,408.75,387.24Z" transform="translate(-375.214 -347.073)" fill="#080b09"/>
  <path id="Tracé_1199" data-name="Tracé 1199" d="M435.417,373.124l-2.675.175a.189.189,0,0,1-.184-.167.608.608,0,0,1,.676-.561l2.212.244C435.621,372.806,435.636,373.113,435.417,373.124Z" transform="translate(-395.503 -336.496)" fill="#080b09"/>
  <path id="Tracé_1200" data-name="Tracé 1200" d="M395.867,374.186l3.565.045a.778.778,0,0,0-.914-.7l-2.706.44C395.725,373.974,395.736,374.193,395.867,374.186Z" transform="translate(-365.028 -337.283)" fill="#080b09"/>
  <path id="Tracé_1201" data-name="Tracé 1201" d="M429.28,390.728a.143.143,0,0,1-.1-.249l.721-.659-1.1-2.438a.143.143,0,0,1,.261-.118l1.187,2.628-.874.8A.143.143,0,0,1,429.28,390.728Z" transform="translate(-392.383 -348.597)" fill="#e56441"/>
  <path id="Tracé_1202" data-name="Tracé 1202" d="M347.382,312.92c-1.868.013-2.743-.42-4.7.5a2.864,2.864,0,0,0-1.558,1.295c-.38,1.434-.136,3.426-2.664,3.371,0,0,.818-2.721-.919-3.069-2.949-.59-2.475,4.181-.648,5.346,1.242.791-.891,6.5-2.478,8.6-5.428-12.684-3.544-13.962-2.133-17.272,2.4-5.626,4.5-7.339,10.175-8.27,0,0,7.521.2,9.515,6.82,1.7,5.656-.854,7.825-.854,7.825s.079-4.209-.337-4.64C350.231,312.854,349.787,312.9,347.382,312.92Z" transform="translate(-311.222 -279.233)" fill="#080b09"/>
  <path id="Tracé_1203" data-name="Tracé 1203" d="M855.7,756.978l-21.283,3.781,4.189,16.847h13.633S858.718,763.677,855.7,756.978Z" transform="translate(-728.281 -654.826)" fill="#ffccb3"/>
  <path id="Tracé_1204" data-name="Tracé 1204" d="M879.178,761.06s3.28,1.01,4.634,6.36-.123,12.792-.123,12.792H885.8a18.98,18.98,0,0,0,1.987-20.087Z" transform="translate(-765.348 -657.432)" fill="#ff967c"/>
  <path id="Tracé_1205" data-name="Tracé 1205" d="M884.289,721.318s1.64,12.247-.808,18.085c-2.083,4.965-5.3,7.779-9.209,7.852H844.309s-.047-16-12.685-18.739C831.624,728.516,873.217,716.932,884.289,721.318Z" transform="translate(-725.969 -624.475)" fill="#3f3a64"/>
  <path id="Tracé_1206" data-name="Tracé 1206" d="M1010.375,739.914l-27.187.9.289-1.9,5.3-.612h21.562Z" transform="translate(-851.478 -639.357)" fill="#0d1b33"/>
  <path id="Tracé_1207" data-name="Tracé 1207" d="M954.142,457.2c-.234.991-.294-2.516-.767-2.37-2.164.671-8.322,2.592-9.632,3.14-1.6.667-1.7,3.337-1.808,5.229-.075,1.325,1.9,19.926,2,32.528.021,2.692-2.7,5.843-3.026,7.34a6.035,6.035,0,0,0-.143,1.227,1.087,1.087,0,0,0,1.078,1.093l32.465.3s1.439.209,1.092-1.433a32.021,32.021,0,0,1-.564-5.448c-.323-13.089-.385-35.009-.526-36.046-.213-1.557,1.459-2.9-.352-3.683L963.9,455.06s-1.843,1.344-2.109,1.481C956.739,459.124,954.142,457.2,954.142,457.2Z" transform="translate(-816.345 -404.613)" fill="#febb94"/>
  <path id="Tracé_1208" data-name="Tracé 1208" d="M1016.02,523.287c0-.017-.3-1.762-.562-3.943-.151-1.282-.258-2.462-.317-3.509a23.649,23.649,0,0,1,0-3.288,26.762,26.762,0,0,0-.646-6.32,30.466,30.466,0,0,1-.71-7.766,49.348,49.348,0,0,1,.989-5.493c.653-3,1.329-6.094,1.008-8.566a18.815,18.815,0,0,1-.13-3.055,25.526,25.526,0,0,1,.239-2.686,23.54,23.54,0,0,1,.514-2.649l.5.135-.249-.068.249.068a23.551,23.551,0,0,0-.5,2.594,21.6,21.6,0,0,0-.108,5.594,15.7,15.7,0,0,1-.134,4.2c-.212,1.477-.552,3.037-.881,4.545a48.973,48.973,0,0,0-.98,5.433,30.111,30.111,0,0,0,.7,7.627,27.069,27.069,0,0,1,.652,6.454,35.886,35.886,0,0,0,.312,6.688c.256,2.167.556,3.9.559,3.918Z" transform="translate(-876.768 -422.16)" fill="#ff967c"/>
  <path id="Tracé_1209" data-name="Tracé 1209" d="M497.541,738.819l21.283,3.781-4.189,16.847H501S494.522,745.518,497.541,738.819Z" transform="translate(-448.652 -639.789)" fill="#ffccb3"/>
  <path id="Tracé_1210" data-name="Tracé 1210" d="M529.2,742.9s-3.28,1.01-4.634,6.36.123,12.792.123,12.792h-2.109a18.98,18.98,0,0,1-1.987-20.087Z" transform="translate(-466.721 -642.395)" fill="#ff967c"/>
  <path id="Tracé_1211" data-name="Tracé 1211" d="M301.78,704.463a34.671,34.671,0,0,0-3.323,16.414c.426,8.866,5.277,11.852,12.945,11.852l30.989-3.121s.047-16,12.685-18.739c0,0-14.071-10.242-28.3-7.669C319.787,704.463,315.4,706,301.78,704.463Z" transform="translate(-284.424 -609.949)" fill="#3f3a64"/>
  <path id="Tracé_1212" data-name="Tracé 1212" d="M311.25,682.253s20.07,2.1,27.468-3.43l-.331,4.615s-12.508,6.949-26.842,3.039C311.546,686.476,309.4,684.967,311.25,682.253Z" transform="translate(-294.424 -590.106)" fill="#1c85e8"/>
  <path id="Tracé_1213" data-name="Tracé 1213" d="M668.845,653.584s5.962-1.248,8.431-.676c2.516.52,7.812,1.845,6.864,5.727-.656,2.772-3.55,1.674-3.55,1.674s.753,1.107-.367,1.612c-.683.284-5.088-2.132-5.088-2.132-2.94.946-6.776-1.051-6.776-1.051Z" transform="translate(-590.769 -568.522)" fill="#ffccb3"/>
  <path id="Tracé_1214" data-name="Tracé 1214" d="M722.545,688.619a.248.248,0,0,1-.1-.023l-3.212-1.48a.249.249,0,0,1,.208-.452l3.212,1.48a.249.249,0,0,1-.1.475Z" transform="translate(-632.775 -596.58)" fill="#ff967c"/>
  <path id="Tracé_1215" data-name="Tracé 1215" d="M727.939,674.31a.247.247,0,0,1-.106-.024,42.115,42.115,0,0,0-4.369-1.848.249.249,0,1,1,.1-.488,17.912,17.912,0,0,1,2.568,1.01c1,.443,1.908.872,1.917.876a.249.249,0,0,1-.106.474Z" transform="translate(-636.235 -584.411)" fill="#ff967c"/>
  <path id="Tracé_1216" data-name="Tracé 1216" d="M730.712,663.211a.247.247,0,0,1-.129-.036,16.326,16.326,0,0,0-4.51-1.881.249.249,0,1,1,.121-.482,16.816,16.816,0,0,1,4.647,1.938.249.249,0,0,1-.129.461Z" transform="translate(-638.406 -575.185)" fill="#ff967c"/>
  <path id="Tracé_1217" data-name="Tracé 1217" d="M388.1,545.3h64.709L485.553,599.2H361.342Z" transform="translate(-336.529 -479.54)" fill="#fff"/>
  <path id="Tracé_1218" data-name="Tracé 1218" d="M823.424,678.98l2.169,13.134,12.049,8.109,20.17-2.179-4.955-5.93Z" transform="translate(-719.178 -590.236)" fill="#96bafd"/>
  <path id="Tracé_1219" data-name="Tracé 1219" d="M755.982,603.127l9.032,16.653,13.449,12.759-10.887-16.372Z" transform="translate(-663.33 -527.423)" fill="#fff"/>
  <path id="Tracé_1220" data-name="Tracé 1220" d="M752.437,603.127l9.032,16.653-.871.67-8.9-16.873Z" transform="translate(-659.785 -527.423)" fill="#5ca4e6"/>
  <path id="Tracé_1221" data-name="Tracé 1221" d="M804.325,700l13.449,12.759v.817l-14.32-12.906Z" transform="translate(-702.641 -607.644)" fill="#5ca4e6"/>
  <path id="Tracé_1222" data-name="Tracé 1222" d="M886.757,759.441l18.546-3.39v-.665l-18.546,3.238Z" transform="translate(-771.624 -653.508)" fill="#5ca4e6"/>
  <path id="Tracé_1223" data-name="Tracé 1223" d="M852.857,680.891l-12.082-15.464-17.351,2.33,10.887,16.373Z" transform="translate(-719.178 -579.013)" fill="#e7efff"/>
  <path id="Tracé_1224" data-name="Tracé 1224" d="M269.708,506.321l-2.8,16.1a1.6,1.6,0,0,1-1.764,1.311s-7.893-.519-10.52-.738c-.619-.052-2.3-1.577-1.787-4.09a139.317,139.317,0,0,1,4.075-15.9c.65-2.214,7.6-.889,7.6-.889Z" transform="translate(-246.597 -443.456)" fill="#5661ae"/>
  <path id="Tracé_1225" data-name="Tracé 1225" d="M281.411,496.65a6.627,6.627,0,1,0-6.627-6.627A6.627,6.627,0,0,0,281.411,496.65Z" transform="translate(-264.851 -428.274)" fill="#5661ae"/>
  <path id="Tracé_1226" data-name="Tracé 1226" d="M261.82,624.475l.108-1.284,9.826,1.119L271.6,625.4l-.836,6.89-9.554-1.031Z" transform="translate(-253.612 -544.038)" fill="#ffccb3"/>
  <path id="Tracé_1227" data-name="Tracé 1227" d="M264.9,623.127l9.778,1.13-.152,1.093c-2.222-.245-7.2-.664-9.782-.928Z" transform="translate(-256.539 -543.985)" fill="#ff967c"/>
  <path id="Tracé_1228" data-name="Tracé 1228" d="M265.608,653.253a4.811,4.811,0,1,0-4.811-4.811A4.811,4.811,0,0,0,265.608,653.253Z" transform="translate(-253.268 -560.965)" fill="#ffccb3"/>
  <path id="Tracé_1229" data-name="Tracé 1229" d="M284.619,610.535l27.149-12.745s1.629-5.79-.142-4.828c-1.815.983-30.738,8.8-30.738,8.8Z" transform="translate(-269.905 -518.915)" fill="#ffccb3"/>
  <path id="Tracé_1230" data-name="Tracé 1230" d="M489.843,513.8,478.3,515.816a.913.913,0,0,1-1.1-1.154l3.549-20.346a2.117,2.117,0,0,1,1.589-1.624l11.543-2.017a.913.913,0,0,1,1.1,1.153l-3.549,20.346A2.117,2.117,0,0,1,489.843,513.8Z" transform="translate(-432.45 -434.285)" fill="#1c85e8"/>
  <path id="Tracé_1231" data-name="Tracé 1231" d="M492.856,513.272l-11.543,2.017a.913.913,0,0,1-1.1-1.153l3.549-20.346a2.117,2.117,0,0,1,1.589-1.624l11.543-2.017a.913.913,0,0,1,1.1,1.153l-3.549,20.346A2.117,2.117,0,0,1,492.856,513.272Z" transform="translate(-434.945 -433.849)" fill="#b2cdff"/>
  <path id="Tracé_1232" data-name="Tracé 1232" d="M450.171,556.7l1.34,4.369a67.932,67.932,0,0,0,6.74-1.914c2.316-1.191,4.807-2.8,5.1-3.407a8.566,8.566,0,0,0,.9-4.79,1.212,1.212,0,0,0-1.74-1.011l-4.86,2.426a1.865,1.865,0,0,1,0-1.919c.41-.561-.223-1.63-.5-1.957a.823.823,0,0,0-.837,0c-.226.289.085,1.293-.392,1.93-.813,1.02-.091,1.463-2.184,3.2C452.078,554.986,450.154,556.656,450.171,556.7Z" transform="translate(-410.089 -482.085)" fill="#ffccb3"/>
  <path id="Tracé_1233" data-name="Tracé 1233" d="M503.979,565.051a.18.18,0,0,1-.058-.351,34.373,34.373,0,0,0,4.17-2.093.18.18,0,1,1,.182.312,33.888,33.888,0,0,1-4.236,2.123A.179.179,0,0,1,503.979,565.051Z" transform="translate(-454.497 -493.848)" fill="#ff967c"/>
  <path id="Tracé_1234" data-name="Tracé 1234" d="M502.922,576.312a.18.18,0,0,1-.062-.35c1.088-.4,4-1.971,4.027-1.986a.18.18,0,1,1,.172.317c-.12.065-2.963,1.6-4.076,2.008A.179.179,0,0,1,502.922,576.312Z" transform="translate(-453.622 -503.264)" fill="#ff967c"/>
  <path id="Tracé_1235" data-name="Tracé 1235" d="M506.823,589.289a.18.18,0,0,1-.058-.351c.715-.244,2.874-1.27,2.9-1.28a.18.18,0,0,1,.155.326c-.089.043-2.2,1.045-2.935,1.3A.18.18,0,0,1,506.823,589.289Z" transform="translate(-456.852 -514.598)" fill="#ff967c"/>
  <path id="Tracé_1236" data-name="Tracé 1236" d="M263.008,620.141a5.518,5.518,0,0,0,.066,2.9,16.416,16.416,0,0,0,9.722,1.14,2.3,2.3,0,0,0,.716-2.393Z" transform="translate(-254.964 -541.512)" fill="#5661ae"/>
  <path id="Tracé_1237" data-name="Tracé 1237" d="M1076.669,520.523a61.175,61.175,0,0,0-.552,15.761c.566,4.876,3.675,9.881,3.636,12.209-.064,3.768-4.371,5.364-4.384,7.546-.009,1.291,3.479.488,5.021-.014a6.876,6.876,0,0,1,5.74.4l-.923-33.059Z" transform="translate(-927.814 -459.018)" fill="#ff967c"/>
  <path id="Tracé_1238" data-name="Tracé 1238" d="M1092.1,497.065c-3.2-4-4.629-2.084-5.752-1.986,0,0-3.8.708-3.5,3.924.316,3.4,5.91,26.077,5.91,26.077l11.743-.883-.557-3.127-1.146-6.44-1.222-6.886-.108-.82-1.374-9.058A3.107,3.107,0,0,1,1092.1,497.065Z" transform="translate(-933.994 -437.498)" fill="#febb94"/>
  <path id="Tracé_1239" data-name="Tracé 1239" d="M1092.685,490.227a6.633,6.633,0,1,0-9.123-2.182A6.634,6.634,0,0,0,1092.685,490.227Z" transform="translate(-933.785 -423.755)" fill="#febb94"/>
  <path id="Tracé_1240" data-name="Tracé 1240" d="M933.772,677.7l-7.4.551-1.75,4.128.6,5.1a2.623,2.623,0,0,0,1.406-2.322c.132-1.8,6.026-.524,7.566-2.5" transform="translate(-802.978 -589.172)" fill="#bc775c"/>
  <path id="Tracé_1241" data-name="Tracé 1241" d="M1001.1,638.854l-28.724,5.414a.717.717,0,0,0-.551.785l.7,5.466a1.064,1.064,0,0,0,1.094.917l29.588-1.157Z" transform="translate(-842.064 -557.008)" fill="#febb94"/>
  <path id="Tracé_1242" data-name="Tracé 1242" d="M1123.717,648.943a5.878,5.878,0,1,0-5.877-5.877A5.878,5.878,0,0,0,1123.717,648.943Z" transform="translate(-962.983 -555.628)" fill="#febb94"/>
  <path id="Tracé_1243" data-name="Tracé 1243" d="M871.715,484.865c.959-4.735-1.3-4.613-2.047-5.366,0,0-2.816-2.322-4.961-.157-2.271,2.29-15.29,20.075-15.29,20.075l8.146,7.492,1.531-1.827,3.966-4.73L867.3,495.3l.527-.576,5.723-6.482A2.932,2.932,0,0,1,871.715,484.865Z" transform="translate(-740.703 -424.152)" fill="#febb94"/>
  <path id="Tracé_1244" data-name="Tracé 1244" d="M940.189,480.866a6.26,6.26,0,1,0-7.924,3.948A6.26,6.26,0,0,0,940.189,480.866Z" transform="translate(-805.77 -419.347)" fill="#febb94"/>
  <path id="Tracé_1245" data-name="Tracé 1245" d="M913.738,544.926c-.243-2.631-1.116-6.573-1.116-6.573s-.754-.07-3.079,5.127c-1.722,3.894-3.72,7.863-4.051,11.221l3.966-4.73Z" transform="translate(-787.139 -473.783)" fill="#ff967c"/>
  <path id="Tracé_1246" data-name="Tracé 1246" d="M819.773,380.85c-.424-4,.665-4.2.68-6.369.008-2.121,3.211-6.049,1.683-5.969a3.969,3.969,0,0,0-2.6,1.539c-.226-1.9.156-5.07-1.791-6.265s-2.406-.616-3.992-.141c-4.233,1.3-1.87,6.9-1.827,8.677.038,1.117,2,5.3,2.093,6.068l.626,2.972Z" transform="translate(-709.08 -328.64)" fill="#bc775c"/>
  <path id="Tracé_1247" data-name="Tracé 1247" d="M844.1,372.039l-.579-5.747Z" transform="translate(-735.823 -331.3)" fill="#93523e"/>
  <path id="Tracé_1248" data-name="Tracé 1248" d="M843.475,371.542a.13.13,0,0,1-.129-.117l-.579-5.747a.13.13,0,0,1,.259-.026l.579,5.747a.13.13,0,0,1-.116.143Z" transform="translate(-735.195 -330.673)" fill="#93523e"/>
  <path id="Tracé_1249" data-name="Tracé 1249" d="M830.836,373.5l-.942-5.521Z" transform="translate(-724.536 -332.698)" fill="#93523e"/>
  <path id="Tracé_1250" data-name="Tracé 1250" d="M830.208,373a.13.13,0,0,1-.128-.108l-.942-5.521a.13.13,0,0,1,.257-.044l.942,5.521a.13.13,0,0,1-.107.15Z" transform="translate(-723.908 -332.07)" fill="#93523e"/>
  <path id="Tracé_1251" data-name="Tracé 1251" d="M819.545,384.254l-.476-3.3Z" transform="translate(-715.572 -343.438)" fill="#93523e"/>
  <path id="Tracé_1252" data-name="Tracé 1252" d="M818.917,383.757a.13.13,0,0,1-.129-.112l-.476-3.3a.13.13,0,1,1,.258-.037l.476,3.3a.13.13,0,0,1-.11.148Z" transform="translate(-714.944 -342.811)" fill="#93523e"/>
  <path id="Tracé_1253" data-name="Tracé 1253" d="M840.507,409.962a10.872,10.872,0,0,1,2.486-3.173Z" transform="translate(-733.325 -364.836)" fill="#93523e"/>
  <path id="Tracé_1254" data-name="Tracé 1254" d="M839.879,409.465a.13.13,0,0,1-.12-.181,8.718,8.718,0,0,1,1.526-2.229,12.781,12.781,0,0,1,1-.991.13.13,0,1,1,.171.2,12.771,12.771,0,0,0-.975.972A8.458,8.458,0,0,0,840,409.386.13.13,0,0,1,839.879,409.465Z" transform="translate(-732.697 -364.208)" fill="#93523e"/>
  <path id="Tracé_1255" data-name="Tracé 1255" d="M841.32,491.232l-6.343-24.14a.677.677,0,0,0-.771-.474l-5.108.973a1,1,0,0,0-.8,1.084l2.383,25.2Z" transform="translate(-723.21 -414.371)" fill="#febb94"/>
  <path id="Tracé_1256" data-name="Tracé 1256" d="M829.415,462.217s-.629-2.41,0-2.675,4.57-1.018,5.1-.525a7.72,7.72,0,0,1,.991,2.545Z" transform="translate(-723.908 -407.95)" fill="#febb94"/>
  <path id="Tracé_1257" data-name="Tracé 1257" d="M847.293,599.884a5.547,5.547,0,1,0-5.547-5.547A5.547,5.547,0,0,0,847.293,599.884Z" transform="translate(-734.351 -515.55)" fill="#febb94"/>
  <path id="Tracé_1258" data-name="Tracé 1258" d="M356.033,473.812,356,473.8a8.167,8.167,0,0,1-3.052-1.988,22.3,22.3,0,0,1-2.626-3.086,36.809,36.809,0,0,1-2.544-4.087l.153-.079a36.625,36.625,0,0,0,2.532,4.067c1.377,1.91,3.454,4.322,5.551,5a1.8,1.8,0,0,0,.318-.282,4.306,4.306,0,0,0,.74-1.188c.478-1.083,1.008-3.138.818-6.774l.172-.009a22.062,22.062,0,0,1-.15,4.32,9.9,9.9,0,0,1-.694,2.557,3.194,3.194,0,0,1-1.152,1.546Z" transform="translate(-325.296 -412.677)" fill="#fff"/>
  <path id="Tracé_1259" data-name="Tracé 1259" d="M388.129,516.007a1.408,1.408,0,1,0-1.408-1.408A1.408,1.408,0,0,0,388.129,516.007Z" transform="translate(-357.546 -452.947)" fill="#5661ae"/>
  <path id="Tracé_1260" data-name="Tracé 1260" d="M381.547,509.394a.487.487,0,1,0-.487-.487A.487.487,0,0,0,381.547,509.394Z" transform="translate(-352.858 -448.997)" fill="#5661ae"/>
  <path id="Tracé_1261" data-name="Tracé 1261" d="M400.759,507.642a.487.487,0,1,0-.487-.487A.487.487,0,0,0,400.759,507.642Z" transform="translate(-368.767 -447.546)" fill="#5661ae"/>
  <path id="Tracé_1262" data-name="Tracé 1262" d="M554.133,652.758l-15.868.09v15.246l23.617-1.376Z" transform="translate(-483.039 -568.522)" fill="#fff"/>
  <path id="Tracé_1263" data-name="Tracé 1263" d="M622.88,665.537a.328.328,0,0,1-.3-.185l-2.624-5.39a.328.328,0,1,1,.59-.287l2.624,5.39a.328.328,0,0,1-.295.472Z" transform="translate(-550.663 -574.097)" fill="#1c85e8"/>
  <path id="Tracé_1264" data-name="Tracé 1264" d="M606.362,662.169a.328.328,0,0,1-.3-.185l-.983-2.02a.328.328,0,0,1,.59-.287l.983,2.02a.328.328,0,0,1-.295.472Z" transform="translate(-538.344 -574.099)" fill="#1c85e8" opacity="0.4"/>
  <path id="Tracé_1265" data-name="Tracé 1265" d="M544.491,660.523l7.848-.182.577,1.92-8.268.282Z" transform="translate(-488.195 -574.801)" fill="#1c85e8" opacity="0.4"/>
  <path id="Tracé_1266" data-name="Tracé 1266" d="M545.772,678.973l4.608-.124.577,1.92-5.028.225Z" transform="translate(-489.255 -590.128)" fill="#1c85e8" opacity="0.4"/>
  <path id="Tracé_1267" data-name="Tracé 1267" d="M545.772,698.477l7.848-.182.577,1.92-8.268.282Z" transform="translate(-489.255 -606.231)" fill="#1c85e8" opacity="0.4"/>
  <path id="Tracé_1268" data-name="Tracé 1268" d="M547.053,716.927l4.608-.124.577,1.92-5.027.224Z" transform="translate(-490.316 -621.557)" fill="#1c85e8" opacity="0.4"/>
  <path id="Tracé_1269" data-name="Tracé 1269" d="M468.487,749.776l17.5-10.957,12.406,3.528-14.952,13.142Z" transform="translate(-425.256 -639.789)" fill="#3a98f5"/>
  <path id="Tracé_1270" data-name="Tracé 1270" d="M1030.54,450.778s5.862-1.965,6.964-4.563c0,0,2.677.385,3.727,1.391s3.6,1.306,1.385,2.424-10.831,2.066-11.356,1.92S1030.54,450.778,1030.54,450.778Z" transform="translate(-890.691 -397.484)" fill="#fff"/>
  <path id="Tracé_1271" data-name="Tracé 1271" d="M1000.767,451.95v1.315a3.337,3.337,0,0,0,2.429,2.262.873.873,0,0,1-.751,1.166c-1.047.124-4.093-1.416-4.541-1.567s-.648-.77.225-1.267A2.657,2.657,0,0,1,1000.767,451.95Z" transform="translate(-863.347 -402.233)" fill="#fff"/>
  <path id="Tracé_1272" data-name="Tracé 1272" d="M1032.5,489.813a.08.08,0,0,1-.024,0,.113.113,0,0,1-.071-.049.116.116,0,0,1-.015-.086c.32-1.4-.574-3.12-1.437-4.788a12.855,12.855,0,0,1-1.473-3.674,13.67,13.67,0,0,1,.7-5.722.112.112,0,0,1,.059-.063.113.113,0,0,1,.086,0,.129.129,0,0,1,.038.023.131.131,0,0,1,.026.035.094.094,0,0,1,.01.043.123.123,0,0,1-.007.043,13.476,13.476,0,0,0-.691,5.614,12.8,12.8,0,0,0,1.454,3.6c.88,1.7,1.795,3.467,1.456,4.943a.1.1,0,0,1-.04.062A.113.113,0,0,1,1032.5,489.813Z" transform="translate(-889.74 -421.667)" fill="#fff"/>
  <path id="Tracé_1273" data-name="Tracé 1273" d="M1021.325,488.541a.112.112,0,0,1-.07-.023.111.111,0,0,1-.038-.062c-.7-2.956.05-8.023.3-9.506a14.465,14.465,0,0,0,.217-3.4.108.108,0,0,1,.026-.081.112.112,0,0,1,.156-.016.109.109,0,0,1,.041.075,14.583,14.583,0,0,1-.218,3.46c-.247,1.474-1,6.5-.3,9.418a.1.1,0,0,1,0,.051.112.112,0,0,1-.021.046.106.106,0,0,1-.04.03.127.127,0,0,1-.05.011Z" transform="translate(-882.727 -421.674)" fill="#fff"/>
  <g id="Groupe_14868" data-name="Groupe 14868" transform="translate(141.93 67.536)" opacity="0.6">
    <path id="Tracé_1274" data-name="Tracé 1274" d="M1043.352,557.028a.709.709,0,1,0-.712-.709A.709.709,0,0,0,1043.352,557.028Z" transform="translate(-1042.64 -555.611)" fill="#fff" opacity="0.6"/>
  </g>
  <g id="Groupe_14869" data-name="Groupe 14869" transform="translate(138.015 66.048)" opacity="0.6">
    <path id="Tracé_1275" data-name="Tracé 1275" d="M1020.58,548.373a.708.708,0,1,0-.71-.709A.71.71,0,0,0,1020.58,548.373Z" transform="translate(-1019.87 -546.956)" fill="#fff" opacity="0.6"/>
  </g>
  <path id="Tracé_1276" data-name="Tracé 1276" d="M776.721,197.212H775.69v-.172h1.031Z" transform="translate(-679.65 -191.143)" fill="#5ca4e6"/>
  <path id="Tracé_1277" data-name="Tracé 1277" d="M584.145,166.147H524.728a3.144,3.144,0,0,0-3.144,3.144v38.29a3.144,3.144,0,0,0,3.144,3.144h59.417a3.144,3.144,0,0,0,3.144-3.144v-38.29A3.144,3.144,0,0,0,584.145,166.147Z" transform="translate(-469.225 -165.561)" fill="#fff"/>
  <path id="Tracé_1278" data-name="Tracé 1278" d="M709.651,359.794H676.643a.989.989,0,0,0-.989.989v4.464a.989.989,0,0,0,.989.989h33.008a.989.989,0,0,0,.989-.989v-4.464A.989.989,0,0,0,709.651,359.794Z" transform="translate(-596.81 -325.919)" fill="#fff"/>
  <path id="Tracé_1279" data-name="Tracé 1279" d="M813.952,374.516v-.257h.581v2.235h-.284v-1.979Zm1.058.306a.605.605,0,0,1,.22-.445.893.893,0,0,1,.875-.083.524.524,0,0,1,.232.2.546.546,0,0,1,.08.294.513.513,0,0,1-.111.331.486.486,0,0,1-.284.179v.015a.571.571,0,0,1,.318.195.586.586,0,0,1,.118.38.635.635,0,0,1-.08.318.555.555,0,0,1-.241.22.855.855,0,0,1-.386.08.828.828,0,0,1-.538-.17.67.67,0,0,1-.235-.489h.272a.467.467,0,0,0,.151.3.5.5,0,0,0,.346.117.445.445,0,0,0,.328-.111.4.4,0,0,0,.114-.294.37.37,0,0,0-.154-.334.857.857,0,0,0-.467-.1H815.5V375.2h.074a.847.847,0,0,0,.43-.093.314.314,0,0,0,.145-.284.339.339,0,0,0-.108-.263.425.425,0,0,0-.3-.1.463.463,0,0,0-.309.1.4.4,0,0,0-.139.266Zm1.793,1.447q.392-.315.615-.516a2.531,2.531,0,0,0,.374-.424.766.766,0,0,0,.155-.436.467.467,0,0,0-.1-.315.381.381,0,0,0-.312-.117.414.414,0,0,0-.328.133.546.546,0,0,0-.124.349h-.272a.743.743,0,0,1,.21-.535.71.71,0,0,1,.51-.189.7.7,0,0,1,.5.176.632.632,0,0,1,.189.485.925.925,0,0,1-.155.5,2.194,2.194,0,0,1-.346.427q-.195.183-.5.427h1.064v.235H816.8Z" transform="translate(-711.335 -337.862)" fill="#1c85e8"/>
  <path id="Tracé_1280" data-name="Tracé 1280" d="M559.763,193.612h-17.3a1.174,1.174,0,0,0-1.174,1.175v32.66a1.174,1.174,0,0,0,1.174,1.174h17.3a1.175,1.175,0,0,0,1.174-1.174v-32.66A1.175,1.175,0,0,0,559.763,193.612Z" transform="translate(-485.545 -188.304)" fill="#3a98f5"/>
  <path id="Tracé_1281" data-name="Tracé 1281" d="M574.57,281.13a4.954,4.954,0,1,0-4.955-4.954A4.955,4.955,0,0,0,574.57,281.13Z" transform="translate(-509 -252.572)" fill="#fff" opacity="0.4"/>
  <path id="Tracé_1282" data-name="Tracé 1282" d="M589.521,289.688v3.144a.5.5,0,0,0,.743.441l2.875-1.572a.5.5,0,0,0,0-.881l-2.875-1.572a.5.5,0,0,0-.743.441Z" transform="translate(-525.484 -267.449)" fill="#fff"/>
  <path id="Tracé_1283" data-name="Tracé 1283" d="M686.4,212.709H674.047a1.405,1.405,0,1,1,0-2.81H686.4a1.405,1.405,0,0,1,0,2.81Z" transform="translate(-594.316 -201.791)" fill="#fff"/>
  <path id="Tracé_1284" data-name="Tracé 1284" d="M699.584,246.258H674.047a1.405,1.405,0,1,1,0-2.81h25.538a1.405,1.405,0,1,1,0,2.81Z" transform="translate(-594.316 -229.573)" fill="#fff" opacity="0.4"/>
  <path id="Tracé_1285" data-name="Tracé 1285" d="M687.29,290.725H674.933a1.405,1.405,0,1,1,0-2.81H687.29a1.405,1.405,0,1,1,0,2.81Z" transform="translate(-595.049 -266.396)" fill="#fff"/>
  <path id="Tracé_1286" data-name="Tracé 1286" d="M700.471,324.273H674.933a1.405,1.405,0,1,1,0-2.81h25.538a1.405,1.405,0,1,1,0,2.81Z" transform="translate(-595.049 -294.177)" fill="#fff" opacity="0.4"/>
  <path id="Tracé_1287" data-name="Tracé 1287" d="M689.933,370.784a1.047,1.047,0,0,0-1.421,0l-.268.247-.268-.247a1.046,1.046,0,0,0-1.42,0,.986.986,0,0,0,0,1.462l1.688,1.565,1.688-1.544a.978.978,0,0,0,0-1.482Z" transform="translate(-605.57 -334.79)" fill="#f4608a"/>
  <path id="Tracé_1288" data-name="Tracé 1288" d="M718.561,374.822a.606.606,0,0,1,.22-.445.894.894,0,0,1,.875-.083.525.525,0,0,1,.232.2.546.546,0,0,1,.081.294.513.513,0,0,1-.111.331.487.487,0,0,1-.284.179v.015a.571.571,0,0,1,.319.195.587.587,0,0,1,.117.38.636.636,0,0,1-.08.318.556.556,0,0,1-.241.22.856.856,0,0,1-.386.08.829.829,0,0,1-.538-.17.67.67,0,0,1-.235-.489h.272a.467.467,0,0,0,.152.3.5.5,0,0,0,.346.117.444.444,0,0,0,.328-.111.4.4,0,0,0,.115-.294.37.37,0,0,0-.155-.334.856.856,0,0,0-.467-.1h-.071V375.2h.074a.847.847,0,0,0,.43-.093.314.314,0,0,0,.145-.284.338.338,0,0,0-.108-.263.425.425,0,0,0-.3-.1.464.464,0,0,0-.309.1.4.4,0,0,0-.139.266Zm2.164,1.283-.346.832h-.189l.226-.832Zm1.7-1.6h-1.085v.7a.5.5,0,0,1,.21-.161.7.7,0,0,1,.3-.065.733.733,0,0,1,.417.108.58.58,0,0,1,.229.275.9.9,0,0,1,.071.355.921.921,0,0,1-.084.4.631.631,0,0,1-.257.278.81.81,0,0,1-.424.1.8.8,0,0,1-.525-.167.7.7,0,0,1-.244-.445h.275a.462.462,0,0,0,.17.275.526.526,0,0,0,.328.1.457.457,0,0,0,.368-.145.589.589,0,0,0,.124-.39.517.517,0,0,0-.124-.371.474.474,0,0,0-.365-.133.515.515,0,0,0-.287.08.448.448,0,0,0-.176.213h-.266v-1.261h1.345Zm.482,1.765q.393-.315.615-.516a2.526,2.526,0,0,0,.374-.424.766.766,0,0,0,.155-.436.466.466,0,0,0-.1-.315.38.38,0,0,0-.312-.117.415.415,0,0,0-.328.133.547.547,0,0,0-.124.349h-.272a.743.743,0,0,1,.21-.535.8.8,0,0,1,1.014-.012.632.632,0,0,1,.189.485.925.925,0,0,1-.155.5,2.2,2.2,0,0,1-.346.427q-.195.183-.5.427h1.063v.235h-1.487Zm3.188-1.79-.859,2.016h-.285l.872-1.988h-1.193v-.241H726.1Z" transform="translate(-632.313 -337.862)" fill="#1c85e8"/>
  <path id="Tracé_1289" data-name="Tracé 1289" d="M782.436,370.279c0-.948-1.124-1.717-2.51-1.717s-2.51.769-2.51,1.717S778.54,372,779.926,372c.1,0,.2-.005.292-.013a.1.1,0,0,1,.043.006.1.1,0,0,1,.036.024,1.9,1.9,0,0,0,1.31.521.1.1,0,0,0,.053-.011.1.1,0,0,0,.039-.143,2.436,2.436,0,0,1-.3-.626.1.1,0,0,1,.052-.114A1.615,1.615,0,0,0,782.436,370.279Z" transform="translate(-681.079 -333.18)" fill="#1c85e8"/>
  <path id="Tracé_1290" data-name="Tracé 1290" d="M370.708,166H348.913a3.008,3.008,0,0,0-3.008,3.008v30.058a3.008,3.008,0,0,0,3.008,3.008h21.795a3.009,3.009,0,0,0,3.008-3.008V169.008A3.008,3.008,0,0,0,370.708,166Z" transform="translate(-323.746 -165.439)" fill="#3a98f5"/>
  <path id="Tracé_1291" data-name="Tracé 1291" d="M409.186,293.573l-1.142,2.678h-.378l1.158-2.641h-1.585v-.32h1.947Zm.956,1.134a.762.762,0,0,1-.353-.263.7.7,0,0,1-.123-.419.733.733,0,0,1,.111-.4.745.745,0,0,1,.329-.283,1.221,1.221,0,0,1,.534-.107,1.2,1.2,0,0,1,.53.107.742.742,0,0,1,.333.283.75.75,0,0,1-.012.817.754.754,0,0,1-.349.263.769.769,0,0,1,.4.275.734.734,0,0,1,.152.468.836.836,0,0,1-.132.468.87.87,0,0,1-.374.308,1.472,1.472,0,0,1-1.1,0,.882.882,0,0,1-.365-.308.836.836,0,0,1-.131-.468.764.764,0,0,1,.148-.472A.747.747,0,0,1,410.142,294.706Zm1.113-.637a.472.472,0,0,0-.164-.386.689.689,0,0,0-.452-.135.682.682,0,0,0-.448.135.477.477,0,0,0-.164.39.456.456,0,0,0,.168.37.683.683,0,0,0,.444.14.673.673,0,0,0,.444-.14A.464.464,0,0,0,411.255,294.07Zm-.616.8a.81.81,0,0,0-.5.144.488.488,0,0,0-.193.423.532.532,0,0,0,.185.423.755.755,0,0,0,.505.16.739.739,0,0,0,.5-.16.533.533,0,0,0,.185-.423.494.494,0,0,0-.189-.419A.783.783,0,0,0,410.639,294.871Zm1.47-.92a.591.591,0,0,1,.168-.443.636.636,0,0,1,.862,0,.591.591,0,0,1,.168.443.611.611,0,0,1-.168.452.648.648,0,0,1-.862,0A.611.611,0,0,1,412.109,293.951Zm2.4-.567-1.663,2.867h-.37l1.663-2.867Zm-1.8.185a.274.274,0,0,0-.222.1.437.437,0,0,0-.078.283.454.454,0,0,0,.078.287.3.3,0,0,0,.443,0,.448.448,0,0,0,.082-.287.422.422,0,0,0-.082-.283A.274.274,0,0,0,412.709,293.569Zm.973,2.115a.6.6,0,0,1,.168-.448.584.584,0,0,1,.431-.168.57.57,0,0,1,.427.168.6.6,0,0,1,.168.448.605.605,0,0,1-.168.448.57.57,0,0,1-.427.168.592.592,0,0,1-.431-.164A.611.611,0,0,1,413.682,295.684Zm.6-.382a.274.274,0,0,0-.222.1.422.422,0,0,0-.082.283.433.433,0,0,0,.082.283.308.308,0,0,0,.444,0,.433.433,0,0,0,.082-.283.422.422,0,0,0-.082-.283A.274.274,0,0,0,414.277,295.3Z" transform="translate(-374.536 -270.803)" fill="#fff"/>
  <path id="Tracé_1292" data-name="Tracé 1292" d="M379.869,261.243a9.742,9.742,0,1,1,9.742-9.742A9.753,9.753,0,0,1,379.869,261.243Zm0-16.905a7.163,7.163,0,1,0,7.163,7.163A7.171,7.171,0,0,0,379.869,244.338Z" transform="translate(-343.804 -228.175)" fill="#fff"/>
  <path id="Tracé_1293" data-name="Tracé 1293" d="M379.869,301.949a9.742,9.742,0,0,1-9.742-9.73,1.289,1.289,0,0,1,2.579,0,7.163,7.163,0,0,0,14.327,0,1.289,1.289,0,0,1,1.289-1.288h0a1.289,1.289,0,0,1,1.288,1.291,9.742,9.742,0,0,1-9.742,9.73Z" transform="translate(-343.804 -268.892)" fill="#96bafd"/>
  <path id="Tracé_1294" data-name="Tracé 1294" d="M429.04,252.79a1.289,1.289,0,0,1-1.289-1.289,7.163,7.163,0,0,0-7.163-7.163,1.289,1.289,0,1,1,0-2.579,9.742,9.742,0,0,1,9.742,9.742A1.289,1.289,0,0,1,429.04,252.79Z" transform="translate(-384.522 -228.175)" fill="#e9e1d6"/>
  <path id="Tracé_1295" data-name="Tracé 1295" d="M371.868,196h-5.618a.639.639,0,1,1,0-1.278h5.618a.639.639,0,0,1,0,1.278Z" transform="translate(-340.064 -189.223)" fill="#fff"/>
  <path id="Tracé_1296" data-name="Tracé 1296" d="M377.86,211.251h-11.61a.639.639,0,1,1,0-1.278h11.61a.639.639,0,1,1,0,1.278Z" transform="translate(-340.064 -201.853)" fill="#fff" opacity="0.4"/>
  <path id="Tracé_1297" data-name="Tracé 1297" d="M485.553,858.817H361.342v3.121H485.553Z" transform="translate(-336.529 -739.159)" fill="#3a98f5"/>
  <ellipse id="Ellipse_421" data-name="Ellipse 421" cx="0.476" cy="0.476" rx="0.476" ry="0.476" transform="translate(25.669 40.028)" fill="#5661ae"/>
</svg>
