<svg xmlns="http://www.w3.org/2000/svg" width="180.857" height="201.031" viewBox="0 0 180.857 201.031"><g transform="translate(20648 157.999)"><path d="M11.877,168.981V200.4H31.628v-6.913H19.059v-5.567H30.282V181.1H19.059v-5.207H31.4v-6.913Z" transform="translate(-20648 -158)" fill="#3f3a64"/><path d="M59.4,168.981V200.4H52.669v-2.109a8.433,8.433,0,0,1-6.689,2.738c-5.88,0-10.728-5.162-10.728-11.851S40.1,177.33,45.98,177.33a8.431,8.431,0,0,1,6.689,2.739V168.981Zm-6.733,20.2a5.344,5.344,0,1,0-5.342,5.477,5.127,5.127,0,0,0,5.342-5.477" transform="translate(-20648 -158)" fill="#3f3a64"/><path d="M86.034,177.959V200.4H79.3v-2.11c-1.212,1.661-3.457,2.738-6.418,2.738-4.536,0-8.4-3.232-8.4-9.292V177.959h6.733v12.794a3.7,3.7,0,0,0,3.906,4.085c2.469,0,4.175-1.437,4.175-4.624V177.959Z" transform="translate(-20648 -158)" fill="#3f3a64"/><path d="M112.586,198.159V200.4H92.52v-2.245l16.968-26.934H92.969v-2.244h19.168v2.244L95.169,198.159Z" transform="translate(-20648 -158)" fill="#20ad96"/><path d="M139.193,189.271c0,.359-.045.719-.045,1.078H118.813a9.137,9.137,0,0,0,9.517,8.394c3.68,0,6.464-1.706,7.766-4.085l1.974,1.167a11.058,11.058,0,0,1-9.785,5.073c-6.913,0-11.806-4.938-11.806-11.717A11.321,11.321,0,0,1,128.1,177.465c6.823,0,11.088,5.656,11.088,11.806m-20.38-1.122h18.046c-.494-5.477-4.355-8.529-8.754-8.529a9.047,9.047,0,0,0-9.292,8.529" transform="translate(-20648 -158)" fill="#20ad96"/><path d="M164.659,186.443V200.4h-2.29V186.443c0-4.13-2.379-6.823-6.6-6.823-4.4,0-7.856,2.873-7.856,8.933V200.4H145.67V177.959h2.245v4.264a8.454,8.454,0,0,1,8.035-4.758c5.342,0,8.709,3.546,8.709,8.978" transform="translate(-20648 -158)" fill="#20ad96"/><path d="M74.341,149.428a74.223,74.223,0,0,1-53.32-22.356C4.863,110.636-2.52,87.811.766,64.452c3.309-23.521,16.808-43.567,37.035-55,1.386-.784,2.807-1.525,4.222-2.205a75.635,75.635,0,0,1,70.167,2.91c10.338,6.065,15.745,14.475,15.226,23.682-.317,5.64-2.865,10-4.55,12.882-3.31,5.662-7.752,13.288-12.192,20.91S101.814,82.845,98.51,88.5A11.864,11.864,0,0,1,78.025,76.521c3.3-5.642,7.721-13.234,12.145-20.83,4.447-7.635,8.9-15.273,12.21-20.943.268-.458.677-1.158.989-1.751a15.254,15.254,0,0,0-3.186-2.371,52.323,52.323,0,0,0-47.891-1.985c-.942.452-1.889.947-2.816,1.471A50.838,50.838,0,0,0,24.264,67.757,50.373,50.373,0,0,0,74.341,125.7a11.864,11.864,0,1,1,0,23.728M103.785,32.083Z" transform="translate(-20648 -158)" fill="#3f3a64"/><path d="M168.992,149.428H122.857a23.728,23.728,0,0,1-20.549-35.593l52.076-90.2A11.864,11.864,0,0,1,174.934,35.5l-52.077,90.2h46.135a11.864,11.864,0,1,1,0,23.729" transform="translate(-20648 -158)" fill="#20ad96"/></g></svg>